<svg width="20" height="20" viewBox="0 0 20 20" fill="none" xmlns="http://www.w3.org/2000/svg">
<path d="M10 20C4.48372 20 0 15.5163 0 10C0 4.48372 4.48372 0 10 0C15.5163 0 20 4.48372 20 10C20 15.5163 15.5163 20 10 20ZM10 1.39535C5.25581 1.39535 1.39535 5.25581 1.39535 10C1.39535 14.7442 5.25581 18.6047 10 18.6047C14.7442 18.6047 18.6047 14.7442 18.6047 10C18.6047 5.25581 14.7442 1.39535 10 1.39535Z" fill="#9AA2AB"/>
<path d="M10.2235 14.4186C7.78633 14.4186 5.80493 12.4372 5.80493 10C5.80493 7.56282 7.78633 5.58142 10.2235 5.58142C11.2933 5.58142 12.3351 5.97212 13.1351 6.6884C13.4235 6.93956 13.4514 7.38607 13.2003 7.67444C12.9491 7.96282 12.5026 7.99073 12.2142 7.73957C11.6654 7.25585 10.9584 6.98608 10.2235 6.98608C8.55839 6.98608 7.20028 8.34421 7.20028 10.0093C7.20028 11.6744 8.55839 13.0326 10.2235 13.0326C10.9491 13.0326 11.6654 12.7628 12.2142 12.2791C12.5026 12.0279 12.9491 12.0558 13.2003 12.3442C13.4514 12.6326 13.4235 13.0791 13.1351 13.3303C12.3258 14.0279 11.2933 14.4186 10.2235 14.4186Z" fill="#9AA2AB"/>
</svg>
