<svg width="21" height="20" viewBox="0 0 21 20" fill="none" xmlns="http://www.w3.org/2000/svg">
<path d="M10.0486 20C4.50549 20 0 15.5163 0 10C0 4.48372 4.50549 0 10.0486 0C15.5916 0 20.0971 4.48372 20.0971 10C20.0971 15.5163 15.5916 20 10.0486 20ZM10.0486 1.39535C5.28133 1.39535 1.40212 5.25581 1.40212 10C1.40212 14.7442 5.28133 18.6047 10.0486 18.6047C14.8158 18.6047 18.695 14.7442 18.695 10C18.695 5.25581 14.8158 1.39535 10.0486 1.39535Z" fill="#9AA2AB"/>
<path d="M10.273 14.4186C7.82402 14.4186 5.83301 12.4372 5.83301 10C5.83301 7.56282 7.82402 5.58142 10.273 5.58142C11.348 5.58142 12.3949 5.97212 13.1988 6.6884C13.4886 6.93956 13.5166 7.38607 13.2642 7.67445C13.0119 7.96282 12.5632 7.99074 12.2734 7.73957C11.7219 7.25585 11.0115 6.98608 10.273 6.98608C8.59984 6.98608 7.23513 8.34421 7.23513 10.0093C7.23513 11.6745 8.59984 13.0326 10.273 13.0326C11.0021 13.0326 11.7219 12.7628 12.2734 12.2791C12.5632 12.0279 13.0119 12.0558 13.2642 12.3442C13.5166 12.6326 13.4886 13.0791 13.1988 13.3303C12.3856 14.0279 11.348 14.4186 10.273 14.4186Z" fill="#9AA2AB"/>
</svg>
