<svg width="124" height="118" viewBox="0 0 124 118" fill="none" xmlns="http://www.w3.org/2000/svg">
<path d="M2 2H15.6523C17.8311 2 19.7535 3.65948 20.3871 6.08724L41.7596 87.9697C42.3932 90.3974 44.3156 92.0569 46.4942 92.0569H94.6487C96.9129 92.0569 98.8889 90.2669 99.4455 87.7108L108.068 48.1326C108.624 45.5762 110.6 43.7864 112.865 43.7864H121.386" stroke="white" stroke-width="3.75648" stroke-linecap="round"/>
<path d="M72.5933 24.9671C71.8686 24.1233 70.6936 24.1233 69.9689 24.9671L58.1589 38.7221C57.4343 39.5662 57.4343 40.9346 58.1589 41.7787C58.8836 42.6227 60.0587 42.6227 60.7834 41.7787L71.281 29.5523L81.7788 41.7787C82.5035 42.6227 83.6784 42.6227 84.4031 41.7787C85.1278 40.9346 85.1278 39.5662 84.4031 38.7221L72.5933 24.9671ZM73.1368 66.841V26.4955H69.4253V66.841H73.1368Z" fill="white"/>
<path d="M58.2909 115.832C61.3656 115.832 63.8581 112.929 63.8581 109.348C63.8581 105.767 61.3656 102.864 58.2909 102.864C55.2162 102.864 52.7236 105.767 52.7236 109.348C52.7236 112.929 55.2162 115.832 58.2909 115.832Z" stroke="white" stroke-width="3.00518"/>
<path d="M85.5084 115.832C88.5831 115.832 91.0756 112.929 91.0756 109.348C91.0756 105.767 88.5831 102.864 85.5084 102.864C82.4337 102.864 79.9412 105.767 79.9412 109.348C79.9412 112.929 82.4337 115.832 85.5084 115.832Z" stroke="white" stroke-width="3.00518"/>
</svg>
