<svg width="23" height="28" viewBox="0 0 23 28" fill="none" xmlns="http://www.w3.org/2000/svg">
<g clip-path="url(#clip0_8_26)">
<path d="M8.62502 25.25C9.15429 25.25 9.58335 24.7463 9.58335 24.125C9.58335 23.5037 9.15429 23 8.62502 23C8.09575 23 7.66669 23.5037 7.66669 24.125C7.66669 24.7463 8.09575 25.25 8.62502 25.25Z" stroke="#ADFF45" stroke-width="2" stroke-linecap="round" stroke-linejoin="round"/>
<path d="M19.1666 25.25C19.6959 25.25 20.125 24.7463 20.125 24.125C20.125 23.5037 19.6959 23 19.1666 23C18.6374 23 18.2083 23.5037 18.2083 24.125C18.2083 24.7463 18.6374 25.25 19.1666 25.25Z" stroke="#ADFF45" stroke-width="2" stroke-linecap="round" stroke-linejoin="round"/>
<path d="M0.958313 1.625H4.79165L7.35998 16.6888C7.44761 17.2067 7.68764 17.672 8.03804 18.0031C8.38845 18.3342 8.8269 18.5101 9.27665 18.5H18.5916C19.0414 18.5101 19.4798 18.3342 19.8303 18.0031C20.1807 17.672 20.4207 17.2067 20.5083 16.6888L22.0416 7.25H5.74998" stroke="#ADFF45" stroke-width="2" stroke-linecap="round" stroke-linejoin="round"/>
</g>
<defs>
<clipPath id="clip0_8_26">
<rect width="23" height="27" fill="white" transform="translate(0 0.5)"/>
</clipPath>
</defs>
</svg>
